<?xml version="1.0" encoding="UTF-8"?>
<svg width="288px" height="397px" viewBox="0 0 288 397" version="1.1" xmlns="http://www.w3.org/2000/svg" xmlns:xlink="http://www.w3.org/1999/xlink">
    <!-- Generator: Sketch 52.5 (67469) - http://www.bohemiancoding.com/sketch -->
    <title>Group 2</title>
    <desc>Created with Sketch.</desc>
    <g id="Page-1" stroke="none" stroke-width="1" fill="none" fill-rule="evenodd">
        <g id="Group-2" transform="translate(-1.000000, 3.000000)">
            <path d="M148.5825,262 L148.4175,392" id="Path" stroke="#E5EDFF" stroke-width="3" fill="#5C85EC" stroke-linecap="round"></path>
            <path d="M277.5,240.5 L151,330" id="Path" fill="#5C85EC"></path>
            <path d="M284,252 L150,349" id="Path" stroke="#E5EDFF" stroke-width="3" fill="#5C85EC" stroke-linecap="round"></path>
            <path d="M148.5,264 L3,100" id="Path" stroke="#E5EDFF" stroke-width="3" fill="#5C85EC" stroke-linecap="round"></path>
            <path d="M9,100 L145,1" id="Path" fill="#5C85EC"></path>
            <path d="M3.54824242,98.8291304 L145.349636,0" id="Path" stroke="#E5EDFF" stroke-width="3" fill="#5C85EC" stroke-linecap="round"></path>
            <path d="M3,224.333282 L146.787879,391.043179" id="Path" stroke="#E5EDFF" stroke-width="3" fill="#5C85EC" stroke-linecap="round" stroke-dasharray="6"></path>
            <path d="M150,392 L286,293" id="Path" stroke="#E5EDFF" stroke-width="3" fill="#5C85EC" stroke-linecap="round" stroke-dasharray="33,33"></path>
            <path d="M3,223 L3,100" id="Path" stroke="#E5EDFF" stroke-width="3" fill="#5C85EC" stroke-linecap="round" stroke-dasharray="33,30"></path>
            <path d="M286,160 L170.5,27.5" id="Path" stroke="#E5EDFF" stroke-width="3" fill-opacity="0" fill="#000000" stroke-linecap="round" stroke-linejoin="round" stroke-dasharray="33,30"></path>
            <path d="M194,25.726971 L148,1 L165.912821,49 M180,37 L148,1" id="Shape" stroke="#E5EDFF" stroke-width="3" fill="#E5EDFF" fill-rule="nonzero"></path>
            <path d="M287,208 L151,307" id="Path" fill="#5C85EC"></path>
            <path d="M283,208 L149,309" id="Path" stroke="#E5EDFF" stroke-width="3" fill="#5C85EC" stroke-linecap="round"></path>
            <path d="M286,165 L151,264" id="Path" fill="#5C85EC"></path>
            <path d="M283,161.5 L150,262" id="Path" stroke="#E5EDFF" stroke-width="3" fill="#5C85EC" stroke-linecap="round"></path>
            <path d="M286.7305,161.046267 L283.936,292.184267" id="Path" stroke="#E5EDFF" stroke-width="3" fill="#5C85EC" stroke-linecap="round"></path>
        </g>
    </g>
</svg>